<svg xmlns="http://www.w3.org/2000/svg" width="18" height="14.24" viewBox="0 0 18 14.24">
  <path id="eye" d="M.988,13.185l2.639-2.474A17.637,17.637,0,0,1,0,7.51L0,7.5A17.354,17.354,0,0,1,2.639,5.01,10.931,10.931,0,0,1,9,2.51a8.42,8.42,0,0,1,2.826.514L15.052,0l1.125,1.055L2.113,14.24ZM6.136,7.51a2.958,2.958,0,0,0,.1.757l3.735-3.5A2.817,2.817,0,0,0,9,4.594,2.894,2.894,0,0,0,6.136,7.51ZM6.173,12l1.858-1.741A2.8,2.8,0,0,0,9,10.427,2.894,2.894,0,0,0,11.863,7.51a3,3,0,0,0-.1-.756l2.606-2.444A17.583,17.583,0,0,1,18,7.51l0,.007a17.36,17.36,0,0,1-2.634,2.493A10.935,10.935,0,0,1,9,12.511,8.419,8.419,0,0,1,6.173,12Z" fill="#282945"/>
</svg>
