<svg xmlns="http://www.w3.org/2000/svg" width="161" height="161" viewBox="0 0 161 161">
  <g id="Grupo_191" data-name="Grupo 191" transform="translate(-1083.133 -253)">
    <path id="Form_3" data-name="Form 3" d="M84.112,90.751,63.279,69.886a39.149,39.149,0,1,1,6.5-6.512L90.612,84.241a4.6,4.6,0,1,1-6.5,6.51ZM9.2,39.145A29.877,29.877,0,0,0,59.923,60.6q.133-.159.282-.309c.1-.1.2-.2.311-.285A29.91,29.91,0,1,0,9.2,39.145ZM36.033,57.666a4.018,4.018,0,0,1-1.227-2.994,3.974,3.974,0,0,1,1.227-2.963,4.207,4.207,0,0,1,5.961,0,4.038,4.038,0,0,1,1.29,2.963,4.1,4.1,0,0,1-.606,2.129,4.586,4.586,0,0,1-1.548,1.538,3.968,3.968,0,0,1-2.083.575A4.1,4.1,0,0,1,36.033,57.666Zm-.482-10.053v-.6a18.568,18.568,0,0,1,.554-4.931,7.369,7.369,0,0,1,1.58-2.968,12.273,12.273,0,0,1,2.506-2.046A16.417,16.417,0,0,0,42.155,35.6a6.314,6.314,0,0,0,1.377-1.688,4.208,4.208,0,0,0,.513-2.072,3.858,3.858,0,0,0-2.15-3.553,4.762,4.762,0,0,0-2.16-.492,4.856,4.856,0,0,0-2.175.5,4.269,4.269,0,0,0-1.678,1.481,4.638,4.638,0,0,0-.7,2.429h-7.2a10.44,10.44,0,0,1,1.694-5.837,9.837,9.837,0,0,1,4.257-3.444,14.7,14.7,0,0,1,5.848-1.139,15.661,15.661,0,0,1,6.215,1.16A9.684,9.684,0,0,1,50.224,26.3a8.955,8.955,0,0,1,1.539,5.278,9.343,9.343,0,0,1-.679,3.667,8.973,8.973,0,0,1-1.9,2.828A14.347,14.347,0,0,1,46.3,40.279a11.54,11.54,0,0,0-2.284,1.735A5.741,5.741,0,0,0,42.693,44.1a8.742,8.742,0,0,0-.45,2.916v.6Z" transform="translate(1117.56 293.224)" fill="#7d7d8e"/>
    <rect id="Retângulo_55" data-name="Retângulo 55" width="161" height="161" transform="translate(1083.133 253)" fill="none"/>
  </g>
</svg>
